<svg width="32" height="30" viewBox="0 0 32 30" fill="none" xmlns="http://www.w3.org/2000/svg">
<path d="M30.2503 4.00012H26.2503V7.00012C26.2503 7.28902 26.1934 7.5751 26.0828 7.84202C25.9722 8.10894 25.8102 8.35146 25.6059 8.55575C25.4016 8.76004 25.1591 8.92209 24.8922 9.03265C24.6252 9.14321 24.3392 9.20012 24.0503 9.20012C23.7613 9.20012 23.4753 9.14321 23.2084 9.03265C22.9414 8.92209 22.6989 8.76004 22.4946 8.55575C22.2903 8.35146 22.1283 8.10894 22.0177 7.84202C21.9072 7.5751 21.8503 7.28902 21.8503 7.00012V4.00012H10.2003V7.00012C10.2003 7.58359 9.96847 8.14317 9.55589 8.55575C9.14331 8.96833 8.58373 9.20012 8.00026 9.20012C7.41678 9.20012 6.8572 8.96833 6.44462 8.55575C6.03204 8.14317 5.80026 7.58359 5.80026 7.00012V4.00012H1.80026C1.56228 3.99741 1.32618 4.04245 1.10591 4.13258C0.885645 4.22271 0.685689 4.35609 0.51787 4.52484C0.350052 4.69359 0.217777 4.89428 0.128871 5.11505C0.0399639 5.33581 -0.00376946 5.57216 0.000257051 5.81012V28.1901C-0.00371596 28.4239 0.0384012 28.6561 0.124203 28.8736C0.210004 29.0911 0.33781 29.2895 0.500319 29.4576C0.662828 29.6257 0.856857 29.7601 1.07132 29.8532C1.28579 29.9463 1.51649 29.9962 1.75026 30.0001H30.2503C30.484 29.9962 30.7147 29.9463 30.9292 29.8532C31.1437 29.7601 31.3377 29.6257 31.5002 29.4576C31.6627 29.2895 31.7905 29.0911 31.8763 28.8736C31.9621 28.6561 32.0042 28.4239 32.0003 28.1901V5.81012C32.0042 5.57635 31.9621 5.3441 31.8763 5.12662C31.7905 4.90913 31.6627 4.71069 31.5002 4.54261C31.3377 4.37452 31.1437 4.2401 30.9292 4.14702C30.7147 4.05394 30.484 4.00402 30.2503 4.00012ZM8.00026 24.0001H6.00026V22.0001H8.00026V24.0001ZM8.00026 19.0001H6.00026V17.0001H8.00026V19.0001ZM8.00026 14.0001H6.00026V12.0001H8.00026V14.0001ZM14.0003 24.0001H12.0003V22.0001H14.0003V24.0001ZM14.0003 19.0001H12.0003V17.0001H14.0003V19.0001ZM14.0003 14.0001H12.0003V12.0001H14.0003V14.0001ZM20.0003 24.0001H18.0003V22.0001H20.0003V24.0001ZM20.0003 19.0001H18.0003V17.0001H20.0003V19.0001ZM20.0003 14.0001H18.0003V12.0001H20.0003V14.0001ZM26.0003 24.0001H24.0003V22.0001H26.0003V24.0001ZM26.0003 19.0001H24.0003V17.0001H26.0003V19.0001ZM26.0003 14.0001H24.0003V12.0001H26.0003V14.0001Z" fill="white"/>
<path d="M8.00049 8C8.2657 8 8.52006 7.89464 8.70759 7.70711C8.89513 7.51957 9.00049 7.26522 9.00049 7V1C9.00049 0.734784 8.89513 0.48043 8.70759 0.292893C8.52006 0.105357 8.2657 0 8.00049 0C7.73527 0 7.48092 0.105357 7.29338 0.292893C7.10585 0.48043 7.00049 0.734784 7.00049 1V7C7.00049 7.26522 7.10585 7.51957 7.29338 7.70711C7.48092 7.89464 7.73527 8 8.00049 8Z" fill="white"/>
<path d="M24.0005 8C24.2657 8 24.5201 7.89464 24.7076 7.70711C24.8951 7.51957 25.0005 7.26522 25.0005 7V1C25.0005 0.734784 24.8951 0.48043 24.7076 0.292893C24.5201 0.105357 24.2657 0 24.0005 0C23.7353 0 23.4809 0.105357 23.2934 0.292893C23.1058 0.48043 23.0005 0.734784 23.0005 1V7C23.0005 7.26522 23.1058 7.51957 23.2934 7.70711C23.4809 7.89464 23.7353 8 24.0005 8Z" fill="white"/>
</svg>
