<svg width="26" height="26" viewBox="0 0 26 26" fill="none" xmlns="http://www.w3.org/2000/svg">
<path d="M13 14.625C14.9394 14.625 16.7994 13.8546 18.1707 12.4832C19.5421 11.1119 20.3125 9.2519 20.3125 7.3125C20.3125 5.3731 19.5421 3.51314 18.1707 2.14178C16.7994 0.770422 14.9394 0 13 0C11.0606 0 9.20064 0.770422 7.82928 2.14178C6.45792 3.51314 5.6875 5.3731 5.6875 7.3125C5.6875 9.2519 6.45792 11.1119 7.82928 12.4832C9.20064 13.8546 11.0606 14.625 13 14.625ZM8.19102 16.25C3.66641 16.25 0 19.9164 0 24.441C0 25.3043 0.700781 26 1.55898 26H24.441C25.3043 26 26 25.2992 26 24.441C26 19.9164 22.3336 16.25 17.809 16.25H8.19102Z" fill="white"/>
</svg>
