<svg width="28" height="28" viewBox="0 0 28 28" fill="none" xmlns="http://www.w3.org/2000/svg">
<path d="M6.09809 16.1923C6.85422 19.1045 5.37931 20.0566 4.61152 20.507C3.84373 20.9573 3.34432 21.1067 2.38983 21.438C1.89975 21.6084 1.43534 21.8907 1.03861 22.2874C-0.307936 23.6339 -0.349943 25.769 0.940598 27.0595C2.23114 28.3499 4.36648 28.3079 5.71303 26.9615C6.10976 26.5648 6.39214 26.1027 6.5625 25.6104C6.89389 24.6536 7.04558 24.1566 7.49365 23.3889C7.94406 22.6211 8.89621 21.1464 11.8087 21.9024C14.5718 22.6188 15.9393 22.2711 17.1412 21.0693L17.9907 20.22L17.986 20.2153L27.8553 9.89648C28.0023 9.74947 28.0676 9.47645 27.9043 9.31544C27.7409 9.15209 27.4492 9.2571 27.3185 9.37144L17.2929 18.9645C17.1342 19.1162 16.8845 19.1139 16.7305 18.9575C16.5764 18.8035 16.5741 18.5538 16.7235 18.3951L26.3197 8.36337C26.462 8.21869 26.532 7.94333 26.3687 7.77999C26.2053 7.61664 25.916 7.71465 25.7829 7.83366L15.755 17.4267C15.5963 17.5784 15.3466 17.5761 15.1926 17.4197C15.0385 17.2657 15.0362 17.016 15.1856 16.8574L24.7818 6.82558C24.9195 6.68323 24.9965 6.40555 24.8331 6.2422C24.6698 6.07885 24.385 6.16986 24.2497 6.29587L14.2194 15.8913C14.0607 16.043 13.811 16.0406 13.657 15.8843C13.503 15.7303 13.5006 15.4806 13.65 15.3219L23.2462 5.29013C23.3769 5.15245 23.4609 4.87009 23.2975 4.70675C23.1342 4.5434 22.8518 4.62741 22.7141 4.75808L12.6815 14.3535C12.5228 14.5052 12.2731 14.5028 12.1191 14.3465C11.965 14.1925 11.9627 13.9428 12.1121 13.7841L21.7059 3.75234C21.832 3.617 21.923 3.32997 21.7596 3.16896C21.5963 3.00562 21.3185 3.08262 21.1762 3.2203L11.1436 12.8157C10.9849 12.9674 10.7352 12.9651 10.5811 12.8087C10.4271 12.6547 10.4248 12.405 10.5741 12.2463L20.168 2.21689C20.287 2.08388 20.3851 1.79452 20.2217 1.63118C20.0583 1.46783 19.783 1.54017 19.6383 1.68018L9.60799 11.2803C9.4493 11.4319 9.19959 11.4296 9.04557 11.2733C8.89154 11.1192 8.88921 10.8696 9.03857 10.7109L18.6301 0.681436C18.7445 0.550759 18.8471 0.259069 18.6861 0.0957235C18.5228 -0.0676225 18.2521 -0.00228409 18.105 0.144727L7.78537 10.0132L7.7807 10.0085L6.93123 10.8579C5.72937 12.0643 5.37931 13.4294 6.09809 16.1923ZM4.14245 23.8602C4.33971 24.0582 4.45046 24.3263 4.45046 24.6058C4.45046 24.8853 4.33971 25.1534 4.14245 25.3513C3.94444 25.5486 3.67633 25.6593 3.39683 25.6593C3.11733 25.6593 2.84922 25.5486 2.65121 25.3513C2.45395 25.1534 2.34319 24.8853 2.34319 24.6058C2.34319 24.3263 2.45395 24.0582 2.65121 23.8602C2.84922 23.663 3.11733 23.5522 3.39683 23.5522C3.67633 23.5522 3.94444 23.663 4.14245 23.8602Z" fill="white"/>
</svg>
