<svg width="21" height="22" viewBox="0 0 21 22" fill="none" xmlns="http://www.w3.org/2000/svg">
<path d="M18.6154 1.69231H16.0769V0.846154C16.0769 0.62174 15.9878 0.406517 15.8291 0.247833C15.6704 0.0891481 15.4552 0 15.2308 0C15.0064 0 14.7911 0.0891481 14.6324 0.247833C14.4738 0.406517 14.3846 0.62174 14.3846 0.846154V1.69231H5.92308V0.846154C5.92308 0.62174 5.83393 0.406517 5.67524 0.247833C5.51656 0.0891481 5.30134 0 5.07692 0C4.85251 0 4.63729 0.0891481 4.4786 0.247833C4.31992 0.406517 4.23077 0.62174 4.23077 0.846154V1.69231H1.69231C1.24348 1.69231 0.813035 1.8706 0.495665 2.18797C0.178296 2.50534 0 2.93579 0 3.38462V20.3077C0 20.7565 0.178296 21.187 0.495665 21.5043C0.813035 21.8217 1.24348 22 1.69231 22H18.6154C19.0642 22 19.4947 21.8217 19.812 21.5043C20.1294 21.187 20.3077 20.7565 20.3077 20.3077V3.38462C20.3077 2.93579 20.1294 2.50534 19.812 2.18797C19.4947 1.8706 19.0642 1.69231 18.6154 1.69231ZM18.6154 6.76923H1.69231V3.38462H4.23077V4.23077C4.23077 4.45518 4.31992 4.67041 4.4786 4.82909C4.63729 4.98777 4.85251 5.07692 5.07692 5.07692C5.30134 5.07692 5.51656 4.98777 5.67524 4.82909C5.83393 4.67041 5.92308 4.45518 5.92308 4.23077V3.38462H14.3846V4.23077C14.3846 4.45518 14.4738 4.67041 14.6324 4.82909C14.7911 4.98777 15.0064 5.07692 15.2308 5.07692C15.4552 5.07692 15.6704 4.98777 15.8291 4.82909C15.9878 4.67041 16.0769 4.45518 16.0769 4.23077V3.38462H18.6154V6.76923Z" fill="white"/>
</svg>
