<svg width="204" height="172" viewBox="0 0 204 172" fill="none" xmlns="http://www.w3.org/2000/svg">
<path d="M190 0H14C10.287 0 6.72602 1.475 4.10051 4.10051C1.475 6.72602 0 10.287 0 14V158C0 161.713 1.475 165.274 4.10051 167.899C6.72602 170.525 10.287 172 14 172H190C193.713 172 197.274 170.525 199.899 167.899C202.525 165.274 204 161.713 204 158V14C204 10.287 202.525 6.72602 199.899 4.10051C197.274 1.475 193.713 0 190 0ZM14 12H190C190.53 12 191.039 12.2107 191.414 12.5858C191.789 12.9609 192 13.4696 192 14V121.57L162.53 92.1C161.23 90.7998 159.687 89.7685 157.988 89.0648C156.289 88.3612 154.469 87.999 152.63 87.999C150.791 87.999 148.971 88.3612 147.272 89.0648C145.573 89.7685 144.03 90.7998 142.73 92.1L121.31 113.52L75.9 68.1C74.6 66.7998 73.0565 65.7685 71.3579 65.0648C69.6592 64.3612 67.8386 63.999 66 63.999C64.1614 63.999 62.3408 64.3612 60.6421 65.0648C58.9435 65.7685 57.4 66.7998 56.1 68.1L12 112.2V14C12 13.4696 12.2107 12.9609 12.5858 12.5858C12.9609 12.2107 13.4696 12 14 12ZM12 158V129.17L64.58 76.59C64.7659 76.4025 64.9871 76.2538 65.2309 76.1522C65.4746 76.0507 65.736 75.9984 66 75.9984C66.264 75.9984 66.5254 76.0507 66.7691 76.1522C67.0129 76.2538 67.2341 76.4025 67.42 76.59L150.83 160H14C13.4696 160 12.9609 159.789 12.5858 159.414C12.2107 159.039 12 158.53 12 158ZM190 160H167.8L129.8 122L151.21 100.58C151.396 100.394 151.616 100.247 151.859 100.146C152.102 100.045 152.362 99.9934 152.625 99.9934C152.888 99.9934 153.148 100.045 153.391 100.146C153.634 100.247 153.854 100.394 154.04 100.58L192.04 138.58V158C192.04 158.266 191.987 158.529 191.884 158.775C191.781 159.02 191.63 159.242 191.44 159.429C191.25 159.615 191.025 159.761 190.778 159.859C190.53 159.958 190.266 160.005 190 160ZM120 58C120 56.0222 120.586 54.0888 121.685 52.4443C122.784 50.7998 124.346 49.5181 126.173 48.7612C128 48.0043 130.011 47.8063 131.951 48.1921C133.891 48.578 135.673 49.5304 137.071 50.9289C138.47 52.3275 139.422 54.1093 139.808 56.0491C140.194 57.9889 139.996 59.9996 139.239 61.8268C138.482 63.6541 137.2 65.2159 135.556 66.3147C133.911 67.4135 131.978 68 130 68C127.348 68 124.804 66.9464 122.929 65.0711C121.054 63.1957 120 60.6522 120 58Z" fill="#3B3B3B"/>
</svg>
