<svg width="22" height="24" viewBox="0 0 22 24" fill="none" xmlns="http://www.w3.org/2000/svg">
<path d="M14.6921 21.4737C14.6923 22.111 14.4578 22.7249 14.0355 23.1923C13.6133 23.6596 13.0346 23.9459 12.4154 23.9937L12.2308 24H9.76943C9.14846 24.0002 8.55037 23.7595 8.09505 23.3261C7.63973 22.8927 7.36082 22.2987 7.31425 21.6632L7.3081 21.4737H14.6921ZM11.0001 1.20514e-09C13.2337 -3.78253e-05 15.3801 0.890392 16.9863 2.48346C18.5926 4.07653 19.5333 6.24769 19.6098 8.53895L19.6148 8.8421V13.5966L21.857 18.1996C21.9549 18.4004 22.0039 18.6226 21.9998 18.8471C21.9957 19.0716 21.9386 19.2918 21.8335 19.4887C21.7283 19.6857 21.5783 19.8535 21.3961 19.9779C21.214 20.1023 21.0052 20.1795 20.7876 20.2029L20.6461 20.2105H1.35413C1.13528 20.2106 0.919667 20.1562 0.725781 20.052C0.531894 19.9478 0.365513 19.7969 0.240893 19.6122C0.116274 19.4276 0.0371323 19.2147 0.0102507 18.9917C-0.0166309 18.7688 0.00954896 18.5425 0.0865468 18.3322L0.143157 18.1996L2.38543 13.5966V8.8421C2.38543 6.49703 3.29305 4.24801 4.90861 2.58979C6.52417 0.931576 8.71535 1.20514e-09 11.0001 1.20514e-09Z" fill="url(#paint0_linear_908_227)"/>
<defs>
<linearGradient id="paint0_linear_908_227" x1="-5" y1="-7.75707e-07" x2="26.5" y2="24" gradientUnits="userSpaceOnUse">
<stop stop-color="#3AD1EE"/>
<stop offset="1" stop-color="#2B90D8"/>
</linearGradient>
</defs>
</svg>
