<svg width="59" height="60" viewBox="0 0 59 60" fill="none" xmlns="http://www.w3.org/2000/svg">
<g filter="url(#filter0_d_1231_66)">
<rect x="7" y="7" width="45" height="46" rx="22.5" fill="#EBEBEB" fill-opacity="0.17" shape-rendering="crispEdges"/>
<rect x="7.5" y="7.5" width="44" height="45" rx="22" stroke="#1FA8D8" shape-rendering="crispEdges"/>
</g>
<path d="M36.5716 41.4284V25.7141M36.5716 22.857V18.5713M22.2859 41.4284V25.7141M22.2859 22.857V18.5713M29.4287 34.2856V18.5713M29.4287 41.4284V37.1427M39.4287 24.2856C39.4287 24.6645 39.2782 25.0278 39.0103 25.2957C38.7424 25.5636 38.379 25.7141 38.0001 25.7141H35.143C34.7641 25.7141 34.4008 25.5636 34.1328 25.2957C33.8649 25.0278 33.7144 24.6645 33.7144 24.2856C33.7144 23.9067 33.8649 23.5433 34.1328 23.2754C34.4008 23.0075 34.7641 22.857 35.143 22.857H38.0001C38.379 22.857 38.7424 23.0075 39.0103 23.2754C39.2782 23.5433 39.4287 23.9067 39.4287 24.2856ZM25.143 24.2856C25.143 24.6645 24.9925 25.0278 24.7246 25.2957C24.4567 25.5636 24.0933 25.7141 23.7144 25.7141H20.8573C20.4784 25.7141 20.115 25.5636 19.8471 25.2957C19.5792 25.0278 19.4287 24.6645 19.4287 24.2856C19.4287 23.9067 19.5792 23.5433 19.8471 23.2754C20.115 23.0075 20.4784 22.857 20.8573 22.857H23.7144C24.0933 22.857 24.4567 23.0075 24.7246 23.2754C24.9925 23.5433 25.143 23.9067 25.143 24.2856ZM32.2859 35.7141C32.2859 36.093 32.1353 36.4564 31.8674 36.7243C31.5995 36.9922 31.2362 37.1427 30.8573 37.1427H28.0001C27.6213 37.1427 27.2579 36.9922 26.99 36.7243C26.7221 36.4564 26.5716 36.093 26.5716 35.7141C26.5716 35.3353 26.7221 34.9719 26.99 34.704C27.2579 34.4361 27.6213 34.2856 28.0001 34.2856H30.8573C31.2362 34.2856 31.5995 34.4361 31.8674 34.704C32.1353 34.9719 32.2859 35.3353 32.2859 35.7141Z" stroke="#1FA8D8" stroke-linecap="round" stroke-linejoin="round"/>
<defs>
<filter id="filter0_d_1231_66" x="0" y="0" width="59" height="60" filterUnits="userSpaceOnUse" color-interpolation-filters="sRGB">
<feFlood flood-opacity="0" result="BackgroundImageFix"/>
<feColorMatrix in="SourceAlpha" type="matrix" values="0 0 0 0 0 0 0 0 0 0 0 0 0 0 0 0 0 0 127 0" result="hardAlpha"/>
<feOffset/>
<feGaussianBlur stdDeviation="3.5"/>
<feComposite in2="hardAlpha" operator="out"/>
<feColorMatrix type="matrix" values="0 0 0 0 1 0 0 0 0 1 0 0 0 0 1 0 0 0 0.15 0"/>
<feBlend mode="normal" in2="BackgroundImageFix" result="effect1_dropShadow_1231_66"/>
<feBlend mode="normal" in="SourceGraphic" in2="effect1_dropShadow_1231_66" result="shape"/>
</filter>
</defs>
</svg>
