<svg width="38" height="37" viewBox="0 0 38 37" fill="none" xmlns="http://www.w3.org/2000/svg">
<path d="M35 32.7681V15.4982C35 15.1828 34.9277 14.8717 34.7889 14.5896C34.65 14.3075 34.4484 14.0621 34.2 13.8728L20.2 3.20615C19.8538 2.94239 19.4327 2.7998 19 2.7998C18.5673 2.7998 18.1462 2.94239 17.8 3.20615L3.8 13.8728C3.55161 14.0621 3.35 14.3075 3.21115 14.5896C3.07229 14.8717 3 15.1828 3 15.4982V32.7681C3 33.3069 3.21071 33.8237 3.58579 34.2047C3.96086 34.5858 4.46957 34.7998 5 34.7998H33C33.5304 34.7998 34.0391 34.5858 34.4142 34.2047C34.7893 33.8237 35 33.3069 35 32.7681Z" fill="#333333" stroke="#333333" stroke-width="4.08" stroke-linecap="round" stroke-linejoin="round"/>
</svg>
