<svg width="234" height="118" viewBox="0 0 234 118" fill="none" xmlns="http://www.w3.org/2000/svg">
<g opacity="0.4">
<rect x="38.3627" y="77.6913" width="157.275" height="38.7573" rx="6.10345" fill="white" stroke="#CCCCCC" stroke-width="1.35632"/>
<path d="M70.2235 105.707C70.2237 106.288 70.0099 106.848 69.6249 107.274C69.24 107.7 68.7124 107.961 68.1478 108.005L67.9796 108.011H65.7356C65.1695 108.011 64.6242 107.791 64.2091 107.396C63.794 107.001 63.5398 106.46 63.4973 105.88L63.4917 105.707H70.2235ZM66.8576 86.1304C68.8939 86.1303 70.8507 86.9421 72.3151 88.3945C73.7795 89.8468 74.637 91.8262 74.7069 93.9151L74.7113 94.1915V98.526L76.7556 102.722C76.8448 102.906 76.8894 103.108 76.8857 103.313C76.8819 103.517 76.8299 103.718 76.7341 103.898C76.6382 104.077 76.5014 104.23 76.3354 104.344C76.1693 104.457 75.9789 104.527 75.7806 104.549L75.6515 104.556H58.0636C57.8641 104.556 57.6675 104.506 57.4908 104.411C57.314 104.316 57.1623 104.179 57.0487 104.01C56.9351 103.842 56.863 103.648 56.8384 103.445C56.8139 103.241 56.8378 103.035 56.908 102.843L56.9596 102.722L59.0038 98.526V94.1915C59.0038 92.0535 59.8313 90.0032 61.3041 88.4914C62.777 86.9797 64.7746 86.1304 66.8576 86.1304Z" fill="#CCCCCC"/>
<rect x="86.0034" y="92.5122" width="91.1673" height="2.73502" rx="1.36751" fill="#CCCCCC"/>
<rect x="86.0034" y="98.8945" width="69.0661" height="2.73502" rx="1.36751" fill="#CCCCCC"/>
</g>
<g opacity="0.6">
<rect x="21.0361" y="45.1909" width="191.928" height="47.297" rx="7.44828" fill="white" stroke="#CCCCCC" stroke-width="1.65517"/>
<path d="M59.918 79.3793C59.9182 80.0884 59.6573 80.7714 59.1875 81.2913C58.7177 81.8113 58.0739 82.1298 57.385 82.1829L57.1796 82.19H54.4412C53.7504 82.1902 53.085 81.9224 52.5784 81.4402C52.0718 80.9581 51.7615 80.2972 51.7097 79.5901L51.7029 79.3793H59.918ZM55.8104 55.4888C58.2954 55.4887 60.6833 56.4794 62.4704 58.2517C64.2575 60.0241 65.304 62.4396 65.3892 64.9888L65.3947 65.326V70.6157L67.8893 75.7367C67.9982 75.9602 68.0527 76.2073 68.0481 76.4571C68.0435 76.7069 67.98 76.9519 67.8631 77.1709C67.7461 77.39 67.5792 77.5768 67.3765 77.7152C67.1739 77.8536 66.9416 77.9395 66.6995 77.9655L66.542 77.974H45.0788C44.8353 77.9741 44.5954 77.9135 44.3797 77.7976C44.164 77.6817 43.9789 77.5138 43.8403 77.3084C43.7016 77.1029 43.6136 76.866 43.5837 76.618C43.5538 76.37 43.5829 76.1182 43.6686 75.8843L43.7315 75.7367L46.2262 70.6157V65.326C46.2262 62.717 47.2359 60.2149 49.0333 58.37C50.8307 56.5252 53.2685 55.4888 55.8104 55.4888Z" fill="#CCCCCC"/>
<rect x="79.1743" y="63.2769" width="111.255" height="3.33765" rx="1.66882" fill="#CCCCCC"/>
<rect x="79.1743" y="71.0645" width="84.2841" height="3.33765" rx="1.66882" fill="#CCCCCC"/>
</g>
<rect x="1.04346" y="1" width="231.914" height="57.1506" rx="9" fill="white" stroke="#CCCCCC" stroke-width="2"/>
<path d="M48.0254 42.3106C48.0257 43.1674 47.7104 43.9927 47.1428 44.621C46.5752 45.2492 45.7972 45.6341 44.9648 45.6983L44.7166 45.7068H41.4078C40.573 45.7071 39.7689 45.3835 39.1568 44.8009C38.5447 44.2183 38.1698 43.4197 38.1072 42.5653L38.0989 42.3106H48.0254ZM43.0622 13.4429C46.0649 13.4428 48.9503 14.6399 51.1097 16.7815C53.269 18.9231 54.5336 21.8418 54.6365 24.922L54.6431 25.3296V31.7212L57.6575 37.9091C57.7891 38.1791 57.8549 38.4778 57.8494 38.7796C57.8439 39.0815 57.7671 39.3774 57.6258 39.6422C57.4845 39.9069 57.2828 40.1326 57.0379 40.2998C56.793 40.467 56.5123 40.5708 56.2198 40.6023L56.0295 40.6125H30.0948C29.8006 40.6126 29.5108 40.5395 29.2501 40.3994C28.9895 40.2593 28.7658 40.0564 28.5983 39.8082C28.4307 39.56 28.3243 39.2737 28.2882 38.974C28.2521 38.6743 28.2873 38.3701 28.3908 38.0874L28.4669 37.9091L31.4812 31.7212V25.3296C31.4812 22.177 32.7014 19.1536 34.8732 16.9244C37.0451 14.6952 39.9907 13.4429 43.0622 13.4429Z" fill="#CCCCCC"/>
<rect x="71.293" y="22.8535" width="134.433" height="4.03299" rx="2.0165" fill="#CCCCCC"/>
<rect x="71.293" y="32.2637" width="101.843" height="4.03299" rx="2.0165" fill="#CCCCCC"/>
</svg>
